<svg width="142" height="58" viewBox="0 0 142 58" fill="none" xmlns="http://www.w3.org/2000/svg">
<g clip-path="url(#clip0_4_42)">
<path d="M25.508 5.1366L25.3901 13.4463L32.4043 8.96837L28.1421 16.106L36.4583 15.7303L29.1907 19.785L36.5812 23.6092L28.2575 23.4915L32.743 30.4939L25.5933 26.2389L25.9696 34.541L21.9081 27.2857L18.0774 34.6638L18.1953 26.3541L11.1811 30.832L15.4433 23.6944L7.12709 24.07L14.3947 20.0154L7.00417 16.1911L15.3279 16.3088L10.8424 9.30646L17.9921 13.5615L17.6158 5.25931L21.6773 12.5146L25.508 5.1366Z" fill="#EAE4D3" stroke="black" stroke-width="0.5" stroke-linecap="square" stroke-linejoin="bevel"/>
<path d="M61.1711 29.1916C62.8243 20.619 64.5201 13.0556 71.7275 12.3043C75.4152 11.9186 82.3818 13.5139 83.7666 16.2362L87.9711 10.2832H92.3687L87.384 34.2531C86.9425 36.3668 87.2135 37.3385 89.2881 37.1206L89.8275 37.0655L88.2646 45.0246L84.8478 45.3802C78.3554 45.7684 80.9744 44.4511 80.3447 42.45C78.3353 45.1273 75.646 47.2185 72.0536 47.3812C66.9586 47.6117 67.656 47.3812 64.8538 47.3512C60.0397 47.3011 59.849 36.229 61.1686 29.1916H61.1711ZM79.9308 30.4839C81.2805 25.3448 79.7753 20.9345 76.8326 20.8619C73.5914 20.7818 70.7742 24.6235 69.7331 28.7759C68.5039 33.6495 69.6654 38.453 73.022 38.5356C76.2556 38.6158 78.7894 34.7665 79.9308 30.4814V30.4839Z" fill="black" stroke="black" stroke-width="0.5" stroke-miterlimit="10" stroke-linecap="square"/>
<path d="M95.9887 22.2319C96.6059 19.7701 96.1744 18.881 94.471 19.0588L93.6155 19.149L93.8789 10.7316H98.2766C101.749 10.3684 102.92 12.3144 102.945 15.5075C105.073 11.6883 106.904 9.37168 110.276 9.01855H114.673L112.817 18.4127L109.884 18.7182C106.196 19.1039 103.52 21.4455 102.215 27.7792L100.374 37.8345L104.706 43.4769L88.2646 45.0222L95.9862 22.2294L95.9887 22.2319Z" fill="black" stroke="black" stroke-width="0.5" stroke-miterlimit="10" stroke-linecap="square"/>
<path d="M106.171 27.2532H110.569C111.889 31.0149 116.251 34.7365 121.193 34.9218C124.299 35.0395 126.281 33.1361 126.374 31.348C126.476 29.4146 122.701 28.6457 120.027 27.6214C115.589 25.9259 113.737 22.2369 114.232 17.4785C114.811 11.9011 116.467 7.67615 122.232 7.07509C127.307 6.54666 134.617 8.81817 136.388 12.2993L130.197 17.7439C128.308 17.6738 127.638 17.8566 125.799 17.7439C126.105 15.6778 126.747 14.368 124.904 14.5608C122.929 14.7662 121.399 15.9357 121.394 17.5937C121.386 19.5897 123.617 20.6967 126.379 21.4705C130.352 22.59 136.175 26.0787 134.83 32.5025C133.583 38.4605 129.371 42.2547 116.949 42.2547C109.558 42.2547 108.108 30.0256 106.174 27.2482L106.171 27.2532Z" fill="black" stroke="black" stroke-width="0.5" stroke-miterlimit="10" stroke-linecap="square"/>
<path d="M39.0773 4.40031H43.475L39.0071 27.9419L59.8967 0.187866H64.2969L57.1397 42.3849L60.9829 47.6041L42.9833 48.939L50.9659 26.2088L36.3103 49.8907L23.0345 50.7497L30.6407 28.3601L18.7397 46.3494L21.3236 51.3683L0.413925 52.9135L39.0773 4.40031Z" fill="black" stroke="black" stroke-width="0.5" stroke-miterlimit="10" stroke-linecap="square"/>
<path d="M4.8141 57.2387H141.812V44.4686H137.414L4.8141 57.2387Z" fill="black" stroke="black" stroke-width="0.5" stroke-miterlimit="10" stroke-linecap="square"/>
<path d="M56.7734 29.1916C58.4266 20.619 64.5202 13.0556 71.7275 12.3043C75.4153 11.9186 77.9841 13.5139 79.3689 16.2362L80.1817 12.0864L87.9686 10.2832L82.9839 34.2531C82.5423 36.3668 82.8133 37.3385 84.8879 37.1206L85.4273 37.0655L83.8644 45.0246L80.4476 45.3802C78.0443 45.6307 76.5743 44.4511 75.9446 42.45C73.9351 45.1273 71.2283 47.0081 67.6535 47.3813C58.5746 48.3279 54.8066 39.6601 56.7684 29.1941L56.7734 29.1916ZM75.5332 30.4839C76.8828 25.3448 75.3776 20.9345 72.435 20.8619C69.1938 20.7818 66.3766 24.6235 65.3355 28.7759C64.1062 33.6495 65.2677 38.453 68.6243 38.5356C71.858 38.6158 74.3917 34.7665 75.5332 30.4814V30.4839Z" fill="#FF9FEA" stroke="black" stroke-width="0.5" stroke-linecap="square" stroke-linejoin="bevel"/>
<path d="M91.5911 22.2318C92.2082 19.77 91.7767 18.8809 90.0733 19.0587L89.2179 19.1489L90.7883 11.0546L93.879 10.7315C97.3509 10.3684 98.5225 12.3143 98.5476 15.5075C100.675 11.6882 103.49 9.72724 106.859 9.37662L110.276 9.021L108.419 18.4151L105.487 18.7206C101.799 19.1063 99.1221 21.448 97.8176 27.7816L95.9762 37.8369L100.309 43.4794L86.9375 44.7792L91.5886 22.2343L91.5911 22.2318Z" fill="#FF9FEA" stroke="black" stroke-width="0.5" stroke-linecap="square" stroke-linejoin="bevel"/>
<path d="M104.478 35.7006L106.171 27.2532C107.491 31.0148 111.853 34.7364 116.796 34.9217C119.901 35.0394 121.883 33.136 121.976 31.3479C122.079 29.4145 118.303 28.6456 115.629 27.6213C111.191 25.9258 109.34 22.2368 109.834 17.4784C110.414 11.901 115.521 7.7562 121.286 7.15264C126.361 6.6242 130.219 8.81808 131.988 12.2992L125.797 17.7439C124.738 15.6527 122.962 14.3053 120.503 14.5607C118.529 14.7661 116.999 15.9357 116.994 17.5936C116.986 19.5896 119.216 20.6966 121.978 21.4704C125.952 22.5899 131.775 26.0786 130.43 32.5024C129.183 38.4605 123.546 42.3999 116.949 42.2547C109.558 42.0944 106.415 38.473 104.481 35.6956L104.478 35.7006Z" fill="#FF9FEA" stroke="black" stroke-width="0.5" stroke-linecap="square" stroke-linejoin="bevel"/>
<path d="M30.578 6.46145L39.0773 4.40031L34.6094 27.9419L49.4607 2.71483L59.8967 0.187866L52.742 42.3849L56.5853 47.6041L42.9833 48.939L46.5682 26.2088L31.9101 49.8907L23.0345 50.7497L26.2431 28.3601L14.3395 46.3494L16.9259 51.3683L0.413925 52.9135L30.578 6.46145Z" fill="#FF9FEA" stroke="black" stroke-width="0.5" stroke-linecap="square" stroke-linejoin="bevel"/>
<path d="M0.413925 57.2387H137.414V44.4686L0.413925 57.2387Z" fill="#FF9FEA" stroke="black" stroke-width="0.5" stroke-linecap="square" stroke-linejoin="bevel"/>
</g>
<defs>
<clipPath id="clip0_4_42">
<rect width="142" height="57.4265" fill="white"/>
</clipPath>
</defs>
</svg>
