<svg width="74" height="74" viewBox="0 0 74 74" fill="none" xmlns="http://www.w3.org/2000/svg">
<path d="M36.8 0C32.2306 0 28.5218 3.70521 28.5218 8.2782C28.5218 17.7411 35.8926 19.3218 35.8926 36.8H37.7074C37.7074 19.3218 45.0782 17.7411 45.0782 8.2782C45.0746 3.70521 41.3694 0 36.8 0Z" fill="black"/>
<path d="M36.8 73.6C41.3694 73.6 45.0782 69.8948 45.0782 65.3218C45.0782 55.8589 37.7074 54.2782 37.7074 36.8H35.8926C35.8926 54.2782 28.5218 55.8589 28.5218 65.3218C28.5218 69.8912 32.227 73.6 36.8 73.6Z" fill="black"/>
<path d="M73.6 36.8C73.6 32.2306 69.8948 28.5218 65.3218 28.5218C55.8589 28.5218 54.2782 35.8926 36.8 35.8926V37.7074C54.2782 37.7074 55.8589 45.0782 65.3218 45.0782C69.8912 45.0782 73.6 41.373 73.6 36.8Z" fill="black"/>
<path d="M0 36.8C0 41.3694 3.70521 45.0782 8.2782 45.0782C17.7411 45.0782 19.3218 37.7074 36.8 37.7074V35.8926C19.3218 35.8926 17.7411 28.5218 8.2782 28.5218C3.70881 28.5218 0 32.227 0 36.8Z" fill="black"/>
<path d="M62.8193 62.8229C66.0528 59.5894 66.0528 54.3502 62.8193 51.1167C56.129 44.4265 49.7988 48.517 37.4409 36.1591C36.8216 36.7784 37.2357 36.3643 36.8 36.8C36.3643 37.2357 36.7784 36.8216 36.1591 37.441C48.5169 49.7989 44.4265 56.129 51.1167 62.8193C54.3502 66.0528 59.5893 66.0528 62.8229 62.8193L62.8193 62.8229Z" fill="black"/>
<path d="M10.7771 10.7771C7.54361 14.0107 7.54361 19.2498 10.7771 22.4833C17.4674 29.1735 23.7975 25.0831 36.1554 37.4409C36.7748 36.8216 36.3607 37.2357 36.7964 36.8L37.4373 36.1591C25.0794 23.8012 29.1699 17.471 22.4797 10.7807C19.2462 7.54725 14.007 7.54725 10.7735 10.7807L10.7771 10.7771Z" fill="black"/>
<path d="M10.7772 62.8229C14.0107 66.0564 19.2498 66.0564 22.4833 62.8229C29.1736 56.1326 25.0831 49.8024 37.441 37.4445C36.8216 36.8252 37.2357 37.2393 36.8 36.8036C36.3643 36.3679 36.7784 36.782 36.1591 36.1627C23.8012 48.5205 17.471 44.4301 10.7808 51.1203C7.54728 54.3538 7.54728 59.593 10.7808 62.8265L10.7772 62.8229Z" fill="black"/>
<path d="M62.8193 10.7771C59.5858 7.54364 54.3467 7.54364 51.1132 10.7771C44.4229 17.4674 48.5134 23.7976 36.1555 36.1555C36.7749 36.7748 36.3608 36.3607 36.7965 36.7964C37.2322 37.2321 36.8181 36.818 37.4374 37.4373C49.7953 25.0795 56.1255 29.1699 62.8157 22.4797C66.0492 19.2462 66.0492 14.0071 62.8157 10.7735L62.8193 10.7771Z" fill="black"/>
</svg>
